<?xml version="1.0" standalone="no"?>
<!DOCTYPE svg PUBLIC "-//W3C//DTD SVG 20010904//EN"
 "http://www.w3.org/TR/2001/REC-SVG-20010904/DTD/svg10.dtd">
<svg version="1.0" xmlns="http://www.w3.org/2000/svg"
 width="500.000000pt" height="500.000000pt" viewBox="0 0 500.000000 500.000000"
 preserveAspectRatio="xMidYMid meet">
<metadata>
Created by potrace 1.14, written by Peter Selinger 2001-2017
</metadata>
<g transform="translate(0.000000,500.000000) scale(0.100000,-0.100000)"
fill="#000000" stroke="none">
<path d="M2300 4448 c-374 -35 -762 -186 -1068 -415 -98 -74 -287 -256 -365
-353 -248 -308 -408 -685 -457 -1080 -13 -109 -13 -381 0 -490 69 -554 357
-1072 782 -1403 572 -445 1288 -572 1970 -347 630 208 1126 704 1333 1335 74
225 105 419 105 660 0 235 -31 435 -100 645 -105 320 -261 578 -494 818 -181
185 -351 310 -581 422 -353 173 -739 245 -1125 208z m440 -33 c244 -29 455
-92 675 -200 619 -304 1035 -877 1141 -1570 22 -149 22 -433 0 -580 -23 -143
-47 -248 -86 -365 -257 -768 -927 -1311 -1740 -1410 -188 -23 -466 -8 -670 35
-430 90 -860 348 -1141 683 -705 842 -652 2053 124 2824 321 320 783 540 1232
587 127 13 340 12 465 -4z"/>
<path d="M2326 4243 l-28 -5 6 -86 c3 -48 10 -184 16 -302 6 -118 13 -233 16
-255 l5 -40 77 3 c42 1 95 5 117 7 l40 5 -3 45 -4 45 -64 0 c-35 0 -64 1 -65
3 0 1 -8 133 -17 292 l-17 290 -25 1 c-14 1 -38 -1 -54 -3z"/>
<path d="M1948 4162 c-35 -11 -48 -21 -48 -34 0 -11 23 -154 50 -318 28 -164
50 -305 50 -312 0 -7 -47 34 -105 92 -94 94 -105 108 -105 140 0 49 -41 127
-94 179 -38 37 -52 45 -94 49 -41 3 -59 0 -98 -22 -27 -15 -61 -37 -76 -49
l-26 -22 130 -190 c72 -104 159 -232 195 -282 l64 -93 39 26 c22 15 40 31 40
36 0 5 -34 59 -76 119 -46 66 -73 114 -67 120 5 5 48 -31 108 -91 55 -55 103
-100 108 -100 5 0 28 14 52 30 24 17 48 30 54 30 5 0 21 4 34 9 23 9 24 12 16
58 -5 26 -11 57 -14 69 -4 17 2 23 34 32 21 7 41 12 45 12 3 0 19 -27 36 -60
17 -33 32 -60 33 -60 2 0 24 7 50 16 l46 16 -154 309 c-85 170 -161 309 -168
308 -6 0 -33 -8 -59 -17z m134 -325 l38 -77 -26 -10 c-15 -6 -28 -9 -30 -7 -4
3 -44 208 -43 217 0 3 5 -6 12 -20 6 -14 28 -60 49 -103z m-442 -17 c38 -40
55 -92 40 -120 -6 -11 -14 -20 -18 -20 -7 1 -112 153 -112 164 0 3 14 6 31 6
22 0 40 -9 59 -30z"/>
<path d="M2936 4161 c-46 -30 -62 -65 -132 -281 -71 -218 -81 -278 -51 -324
37 -56 134 -77 185 -39 27 19 76 105 87 154 6 24 3 27 -40 39 -25 7 -47 11
-49 9 -1 -2 -11 -29 -22 -59 -16 -47 -23 -55 -44 -55 -15 0 -26 6 -28 17 -3
16 78 282 120 396 16 43 24 52 44 52 20 0 24 -5 24 -29 0 -16 -7 -47 -15 -70
l-15 -42 35 -15 c53 -22 62 -18 79 33 23 68 21 144 -6 178 -42 53 -121 70
-172 36z"/>
<path d="M3329 3968 c-28 -15 -70 -71 -169 -219 -116 -173 -133 -204 -137
-246 -5 -58 10 -89 57 -121 49 -33 118 -27 162 14 40 38 258 368 275 418 24
66 -3 127 -69 162 -38 20 -77 17 -119 -8z m91 -108 c0 -19 -233 -379 -254
-392 -17 -12 -31 -3 -34 21 -3 16 34 79 118 207 67 101 127 185 134 187 19 7
36 -4 36 -23z"/>
<path d="M1196 3674 c-18 -23 -25 -39 -19 -45 6 -6 104 -88 219 -182 209 -172
240 -208 188 -215 -15 -2 -85 50 -239 177 l-218 179 -34 -40 c-19 -23 -30 -44
-26 -48 98 -86 427 -349 453 -362 120 -62 241 68 173 185 -19 31 -439 386
-458 387 -5 0 -23 -16 -39 -36z"/>
<path d="M3687 3686 c-21 -8 -46 -21 -55 -29 -213 -181 -317 -275 -339 -303
-55 -73 -21 -179 67 -205 33 -10 47 -9 82 4 52 20 380 302 403 346 24 48 19
104 -12 142 -24 28 -78 60 -100 59 -4 -1 -25 -7 -46 -14z m69 -111 c4 -8 0
-23 -7 -32 -36 -43 -336 -293 -352 -293 -24 0 -33 26 -16 47 36 43 336 293
352 293 10 0 20 -7 23 -15z"/>
<path d="M909 3233 c-28 -59 -47 -109 -42 -110 4 -2 145 -66 313 -143 l305
-140 48 101 c26 56 47 104 47 108 0 7 -91 54 -95 49 -1 -2 -14 -29 -28 -60
l-26 -58 -78 37 c-43 20 -80 38 -82 40 -2 1 4 21 14 43 10 22 16 42 14 44 -2
2 -26 13 -52 24 l-48 21 -17 -37 c-9 -20 -18 -39 -19 -41 -5 -8 -153 62 -153
73 0 6 9 31 20 55 11 24 20 46 20 50 0 4 -21 17 -46 29 l-45 22 -50 -107z"/>
<path d="M3840 3281 c-217 -98 -337 -161 -363 -188 -89 -95 5 -248 131 -214
50 14 395 174 434 203 58 41 76 126 39 182 -45 69 -116 74 -241 17z m156 -76
c4 -8 1 -21 -5 -29 -16 -19 -395 -196 -419 -196 -22 0 -34 20 -23 38 9 16 401
202 424 202 10 0 20 -7 23 -15z"/>
<path d="M2584 3271 c-17 -5 -78 -30 -135 -56 -129 -61 -184 -68 -266 -34 -40
16 -78 24 -120 24 -57 0 -65 -3 -98 -35 -22 -21 -42 -54 -52 -87 -15 -47 -15
-63 -4 -129 23 -139 84 -260 168 -334 l44 -38 -11 -179 c-6 -98 -13 -186 -16
-196 -3 -10 1 -20 10 -23 8 -3 13 -11 10 -17 -9 -26 24 -194 49 -243 55 -109
183 -184 314 -184 115 0 244 70 302 163 24 39 59 148 65 202 3 22 5 40 5 40 1
0 2 104 4 232 2 191 5 235 17 247 8 8 65 35 126 61 123 51 187 92 209 136 40
77 -10 279 -80 325 -21 13 -37 15 -83 9 -117 -16 -136 -12 -225 49 -107 73
-152 86 -233 67z m161 -52 c28 -16 75 -46 105 -65 l55 -36 93 6 c60 4 100 3
113 -5 32 -17 71 -113 77 -189 5 -74 -11 -118 -53 -146 -22 -14 -222 -104
-232 -104 -2 0 9 19 25 43 40 58 57 92 81 166 24 73 27 115 9 109 -7 -3 -16
-28 -20 -57 -5 -29 -18 -76 -30 -104 -26 -62 -101 -172 -123 -181 -41 -15 -41
-7 -3 141 22 88 34 151 28 157 -10 10 -26 -41 -63 -199 l-24 -100 -36 -3 -37
-3 0 205 c0 131 -4 206 -10 206 -6 0 -10 -77 -10 -210 l0 -210 -34 0 c-32 0
-34 2 -40 43 -23 173 -29 207 -37 207 -12 0 -11 -21 6 -125 21 -127 21 -125
-19 -125 -35 0 -46 15 -46 68 0 13 -6 22 -15 22 -17 0 -18 -2 -6 -52 9 -38 9
-38 -24 -38 -39 0 -37 -9 -60 235 -21 220 -24 235 -37 235 -7 0 -9 -18 -4 -57
17 -139 35 -332 36 -375 l0 -48 -84 0 -85 0 -11 58 c-16 79 -20 92 -31 92 -5
0 -9 -1 -9 -3 0 -9 22 -124 26 -139 4 -14 -1 -18 -24 -18 -29 0 -30 3 -82 151
-29 83 -60 180 -69 217 -19 73 -49 103 -37 36 7 -39 67 -222 112 -341 29 -79
14 -84 -51 -17 -100 102 -163 325 -121 425 19 44 46 72 87 89 30 13 39 11 113
-15 123 -44 174 -41 311 23 123 57 132 59 195 61 34 1 57 -7 95 -30z m72 -666
c-5 -38 -7 -137 -5 -220 1 -84 0 -153 -4 -153 -4 0 -58 8 -120 17 -78 11 -182
17 -337 17 l-223 1 7 190 c4 105 8 191 9 192 0 1 136 5 301 11 165 5 318 9
341 10 l41 2 -10 -67z m-128 -389 c58 -8 111 -16 118 -18 15 -6 -10 -121 -42
-192 -98 -219 -413 -248 -555 -52 -34 46 -66 144 -74 225 l-5 52 47 4 c84 8
403 -4 511 -19z"/>
<path d="M3101 2898 c-12 -67 -40 -107 -92 -128 -16 -7 -29 -16 -29 -21 0 -13
6 -11 48 10 63 32 83 64 96 154 11 71 -10 58 -23 -15z"/>
<path d="M795 2910 c-2 -4 -7 -25 -11 -47 -7 -48 -24 -41 193 -74 84 -13 150
-25 147 -28 -3 -3 -85 -15 -182 -26 l-177 -20 -9 -43 c-5 -23 -7 -45 -4 -47 8
-8 668 -108 674 -103 3 3 6 25 7 49 l2 43 -145 22 c-237 37 -236 35 -27 59
103 12 190 24 193 28 7 6 18 87 13 88 -136 25 -671 103 -674 99z"/>
<path d="M3860 2856 l-325 -52 3 -49 c1 -27 4 -50 6 -53 2 -2 49 3 104 12 109
18 178 20 186 8 3 -5 -57 -33 -132 -64 l-137 -56 3 -48 c2 -27 5 -50 6 -52 2
-1 101 36 221 84 l219 86 114 -27 c62 -15 116 -25 118 -22 3 3 2 25 -1 50 l-7
45 -120 23 c-132 26 -131 28 16 49 79 11 86 14 86 35 0 41 -12 85 -24 84 -6
-1 -157 -25 -336 -53z"/>
<path d="M2224 1751 c38 -39 120 -78 199 -92 108 -20 222 8 315 78 55 42 23
49 -37 9 -134 -90 -306 -88 -443 4 -55 38 -70 38 -34 1z"/>
<path d="M2363 1611 c-63 -21 -115 -60 -154 -114 -50 -69 -35 -81 57 -50 59
20 118 55 162 96 l32 31 33 -31 c17 -17 52 -42 76 -54 47 -24 154 -38 164 -22
10 15 -37 77 -80 104 -77 52 -204 69 -290 40z m37 -53 c-60 -55 -170 -106
-170 -80 0 32 140 121 190 121 23 0 22 -2 -20 -41z m166 27 c49 -14 124 -67
124 -87 0 -14 -65 -1 -110 22 -44 23 -100 80 -79 80 9 0 38 -7 65 -15z"/>
<path d="M1980 1419 c-19 -16 -63 -47 -98 -70 -34 -23 -61 -44 -58 -46 6 -6
136 60 165 84 l24 20 64 -38 c80 -46 90 -56 33 -30 -78 35 -78 23 0 -22 116
-66 181 -112 254 -178 89 -82 84 -54 -6 35 l-73 70 64 -48 c35 -27 77 -70 93
-95 19 -29 27 -37 23 -21 -14 47 -33 76 -87 128 -63 61 -89 80 -221 156 -54
31 -108 62 -120 70 -20 14 -25 12 -57 -15z"/>
<path d="M2010 1335 c0 -2 26 -18 58 -35 75 -40 191 -127 286 -216 90 -83 100
-78 19 8 -74 78 -191 172 -257 205 -50 25 -106 45 -106 38z"/>
<path d="M2042 1271 c94 -55 221 -154 311 -242 42 -42 77 -73 77 -68 0 14 -98
124 -152 170 -81 69 -179 136 -232 159 -75 32 -77 24 -4 -19z"/>
<path d="M1820 1284 c0 -9 119 -81 233 -141 217 -115 335 -208 397 -316 39
-68 39 -38 0 41 -33 64 -111 145 -192 198 -77 50 -84 55 -49 38 89 -42 -59 72
-163 126 -43 22 -87 40 -99 40 -14 0 2 -13 48 -38 85 -46 175 -102 175 -109 0
-3 -20 7 -43 21 -50 29 -307 146 -307 140z"/>
<path d="M1768 1228 c-21 -12 -38 -27 -38 -34 0 -6 53 -28 118 -49 140 -45
273 -105 373 -170 72 -46 229 -194 229 -215 0 -6 -27 18 -60 53 -63 68 -142
116 -264 162 -73 28 -285 81 -363 91 -29 4 -53 10 -53 15 0 4 15 20 33 34 l32
27 -33 -19 c-18 -10 -43 -27 -54 -37 -21 -19 -21 -20 -2 -28 10 -4 107 -30
216 -57 269 -68 416 -136 514 -238 25 -27 42 -39 38 -29 -6 14 -4 17 6 11 7
-4 0 16 -16 46 -41 77 -163 195 -259 249 -97 55 -270 126 -345 141 -88 18 -87
17 -55 44 37 30 31 31 -17 3z"/>
<path d="M2803 1219 c-155 -20 -257 -63 -300 -128 -29 -43 -30 -63 -2 -27 27
35 122 82 201 101 88 21 117 18 38 -4 -80 -22 -157 -60 -189 -95 -22 -24 -20
-23 40 9 86 46 141 64 267 85 l107 18 -80 2 -80 2 95 16 c94 16 94 16 50 23
-54 9 -67 9 -147 -2z"/>
<path d="M3050 1187 c0 -2 45 -42 100 -88 l101 -84 -53 -8 c-194 -30 -299 -51
-380 -77 -149 -48 -308 -149 -294 -185 4 -10 12 -15 22 -11 8 3 13 2 9 -3 -9
-15 24 -41 53 -41 24 0 21 -3 -18 -21 -74 -35 -101 -40 -144 -28 -23 6 -44 15
-47 20 -11 18 -176 29 -459 31 -225 1 -261 3 -170 8 234 15 476 10 632 -13 9
-1 17 2 17 7 -1 5 5 12 11 16 17 11 -79 86 -155 121 -110 52 -175 64 -340 64
-91 -1 -167 -6 -194 -14 -23 -7 -45 -10 -48 -7 -3 3 14 29 38 58 l43 53 -58
-55 c-58 -56 -82 -87 -72 -97 2 -3 48 3 101 12 73 13 129 16 233 13 119 -5
150 -9 232 -37 52 -17 102 -36 110 -42 12 -9 11 -9 -5 -3 -11 4 -49 15 -85 25
-113 31 -442 21 -578 -17 -19 -5 -21 -3 -16 12 6 17 4 16 -17 -3 -12 -12 -20
-25 -17 -28 3 -4 95 1 204 11 277 23 426 8 589 -61 18 -8 19 -7 5 11 -11 15
-11 16 0 7 21 -19 22 -46 2 -37 -107 45 -294 62 -517 46 -173 -13 -294 -34
-307 -54 -11 -19 -10 0 2 22 9 16 7 18 -12 15 -32 -7 -91 -66 -78 -79 7 -7
160 -12 448 -14 352 -2 444 -6 475 -18 54 -20 105 -17 165 11 48 22 67 25 170
25 65 0 189 -7 277 -15 173 -16 435 -20 435 -7 0 4 -19 26 -42 47 -41 39 -41
39 -13 5 l28 -35 -69 -3 c-38 -1 -166 9 -284 22 -118 13 -192 24 -165 25 28 0
124 -8 215 -19 178 -21 260 -25 260 -12 0 5 -10 17 -22 28 -19 15 -20 16 -9 2
12 -16 11 -18 -8 -18 -11 0 -20 5 -19 12 4 14 -118 54 -205 67 -60 10 -59 10
28 6 50 -3 108 -7 130 -10 l40 -5 -40 16 c-22 8 -67 22 -100 30 l-60 14 95 -5
c100 -5 103 3 10 26 -35 9 -112 14 -213 14 -87 0 -143 3 -125 7 56 12 339 29
387 23 34 -4 40 -3 25 4 -21 9 -138 28 -214 34 -19 1 15 6 75 11 169 13 169
25 0 27 l-150 1 95 14 c52 8 119 17 149 22 30 4 56 12 58 18 2 7 -51 50 -119
96 -136 93 -148 101 -148 95z m-27 -294 c-7 -2 -21 -2 -30 0 -10 3 -4 5 12 5
17 0 24 -2 18 -5z m-643 -149 c0 -2 -9 0 -20 6 -11 6 -20 13 -20 16 0 2 9 0
20 -6 11 -6 20 -13 20 -16z m653 19 c-18 -2 -48 -2 -65 0 -18 2 -4 4 32 4 36
0 50 -2 33 -4z m-1479 -64 c-16 -17 -16 -22 -4 -29 11 -7 7 -10 -14 -10 l-30
0 29 30 c32 34 48 41 19 9z m1699 -6 c-7 -2 -19 -2 -25 0 -7 3 -2 5 12 5 14 0
19 -2 13 -5z m60 -10 c-7 -2 -19 -2 -25 0 -7 3 -2 5 12 5 14 0 19 -2 13 -5z"/>
<path d="M2875 1133 c-64 -14 -161 -51 -239 -91 -107 -55 -101 -67 7 -18 96
43 209 83 290 100 l62 14 -50 0 c-27 0 -59 -2 -70 -5z"/>
<path d="M2945 1093 c-95 -13 -313 -97 -365 -141 -18 -16 0 -11 69 19 118 51
225 86 307 101 35 6 64 15 64 20 0 8 -20 8 -75 1z"/>
<path d="M2984 1040 c-70 -10 -172 -45 -279 -95 -85 -40 -171 -95 -149 -95 6
0 14 4 20 9 13 13 229 106 299 130 34 11 93 27 133 36 105 24 92 32 -24 15z"/>
<path d="M2474 1004 c4 -12 8 -75 11 -140 2 -66 4 -121 5 -124 0 -3 5 2 10 10
21 32 4 240 -22 265 -7 7 -8 3 -4 -11z"/>
</g>
</svg>
